<svg xmlns="http://www.w3.org/2000/svg" xmlns:xlink="http://www.w3.org/1999/xlink" viewBox="0 0 180 150.7"><style>.st4{fill:#f7f7f7}.st6{fill:#ffd1a6}.st10{fill:#b0b5cf}.st11{fill:#ededed}.st15{fill:#ffb36b}</style><g id="Layer_3"><path d="M39 102c-3-9.9-19-7.8-23.2-15C4.2 63.3 36.7 56.6 55.3 60.8c45.7 11 42.5 17.1 75.8 24.9 69.8 16.2 17 45.2 7.3 49.5-26.2 9.7-106 4.8-99.4-33.1z" fill="#ffd7bd"/><path d="M19.5 119.8c7.8-1.4 15.8-2.3 23-5.7 1.5-.7 2.7-1.5 4-2.6 1.1-1 2.3-2.3 3.8-2.9 2.4-1 4 1 5.8 2.4 1.4 1.3 3.4 1.8 4.8.1 1.4-1.6 1.5-4 2.5-5.9 1.6-3.1 5-1.7 7.2 0 1 .7 1.9 1.7 2.8 2.6.7.7 1.5 1.5 2.5 1.5 1.3 0 2.2-1 2.6-2.2l.4-1.9c0-.4.2-1.5.6-1.8.8-.5 2.5 2.3 3 2.9a7.8 7.8 0 003 2.8c.1.1.3 0 .4-.2.3-.6.6-1.1.7-1.8.1-.5 0-1.3-.3-1.7-.4-.3-.8-.3-.9.2 0 .4-.2.7-.4 1-1.2-.8-1.9-2.1-2.7-3.3a7.5 7.5 0 00-3-2.7h-.4c-.7.7-1 1.6-1.3 2.5-.2 1-.2 2.3-1 3-1.8 1.6-3.6-1.6-4.8-2.6-1.6-1.5-4-3.3-6.4-3-2.3.4-3.3 2.3-4 4.3-.5 1.5-.8 4-2.6 4.6-1.8.5-3.2-1.6-4.4-2.5-1.6-1.3-3.5-1.8-5.4-.7-1.2.7-2.2 1.6-3.2 2.5a16 16 0 01-4.1 2.8c-7.2 3.3-15.1 4-22.6 6.2-.7.2-.3 2.3.4 2.1z" fill="#12007a"/><path d="M-351.3 70.4c-57.6 69.7 47.1 53.7 56.6 92.5 11.9 48 52.5 38.5 85.2 40.8 27.8 1.9 54 15.1 82 14.5 78.4-1.8 99.4-63.3 57-139-22.7-40.3-63.3-16.7-94.8-16.9-32.6-.1-64.9-30-97-15.4-12.7 5.8-21.2 18.6-35.3 20.4-14.9 2-41-12.2-53.7 3.1z" fill="#d4efff"/><linearGradient id="SVGID_1_" gradientUnits="userSpaceOnUse" x1="122.1" y1="55.1" x2="129.9" y2="62.8" gradientTransform="matrix(1.031 -.0372 -.0372 1.0447 .6 -.7)"><stop offset="0" stop-color="#fefefe"/><stop offset="1" stop-color="#dedede"/></linearGradient><path d="M164 12.1a3.5 3.5 0 00-5 .5l-70 84 5.3 4.5 70.1-84c1.2-1.6 1-3.8-.5-5z" fill="url(#SVGID_1_)"/><path class="st4" d="M87.7 100l-2 5.1c-.2.5.4 1 .8.7l4.8-2.8a3.5 3.5 0 01-3.6-3zM94.3 101.1z"/><path class="st4" d="M87.7 100a3.5 3.5 0 003.5 3l3.1-1.9-5.3-4.5-1.3 3.4z"/><g><defs><path id="SVGID_2_" transform="rotate(-50.2 155.3 22.5)" d="M152.9 18.8h4.8v7.3h-4.8z"/></defs><clipPath id="SVGID_3_"><use xlink:href="#SVGID_2_" overflow="visible"/></clipPath></g></g><g id="Layer_2"><path d="M-131.5-384c61.7-171-313.2 24.8-125 105.4 80 34.3 189.7 23.2 245.3 96.9 94.8 125.5 337.5 90.5 379-61.2 9.2-33.5-15.4-118.4-57.7-94.7-281.9 158-241.8-110.6-460.3-158.1-21-4.6-55 0-52.6 26.6 2.4 25 65.2 35.9 47.8 54-19.6 20.5 5.7 80.6 23.5 31.2z" fill="#ebffed"/><path class="st6" d="M-21.6-384.6c1.8-2 2.3-4.9 3.6-7.3 1.3-2.4 4.3-4.5 6.5-3 2 1.4 1.8 4.5 1.3 7-1 5-2 10-3.3 15-.7 3-1.6 6.1-3.5 8.5-1 1.2-2.4 2.2-3.7 3.1-.6-.4-1-1.1-1-1.9M-109.9-273.3l8.3-54.5 59.7-9.7 9.8 77.6-10.1 70z"/><path d="M-128.3-292.9a50 50 0 0140.3 13c6.2 5.5 12.9 10.4 17.2 10.8 7 .7 17.3-14.2 23.6-17.8 12-6.7 41.5-6.5 53.6 0 3.4 1.9 9.6 7.9 11 12 12.3 36.9 30 133.4 3.2 158.3-35.4 33-153 15.6-180.7-26-10.9-16.4-16.8-54-16.5-88.2.3-31.7 20.9-58.3 48.3-62z" fill="#04c8cf"/><path class="st6" d="M-106.2-351c-3 2.7-8 1.8-11.1-1-3-2.6-4.7-6.7-6-10.6-1-2.9-2-5.8-2.5-8.7-.7-3.5-.8-7.4.9-10.5.5-1.1 1.4-2.1 2.5-2.5 2.3-.8 4.5 1.3 6 3.1l14.4 16.6 8 9.7c.3.4.6 1 .5 1.5-.1.6-.7 1-1.2 1.2-4 2.1-8.7 2.9-11.5 1.2z"/><path d="M-122.5-403.7c.2 21 8.9 65.3 23.6 80C-22.7-227.4 8-421.3-36.2-453.3c-10.3-4.2-42-10.8-53.8-3.2-36.6 23.3-32.8 13.7-32.5 52.8z" fill="#ffdfc2"/><path d="M-40.7-467.4l-1.6-1.8c-3.2-3.1-7.3-5-11.3-6.9a333 333 0 00-17.6-7.4l2.4 6c-2.9-.2-5.8-.1-8.6.2L-89-480c-1.7-.4-3.5-.7-5.2-.2-1.7.5-3.2 2.1-3 4 .4 1.6 2 2.6 3.6 3.3a51 51 0 00-9.2 5.4c-4.3-.4-8.6-.8-12.9-1 1.4 3 4 5 6.8 6.3a55.5 55.5 0 00-3.5 3.9l-4-.5c-2-.2-4.4 0-5 2 1.5.3 2.7 1.3 3.5 2.6a26.4 26.4 0 01-5.6 3.8c1.3 1 2.8 1.8 4.2 2.6a69 69 0 00-3.6 8.4l-8.5 1.4 6.5 4.7a105 105 0 00-2.6 36l12.1 38.2c-2.6-15.6 4.4-64 7.6-64 3.2 0 21 2.8 28 2.7 12.3-.1 44-6.4 45.7-8.4 22 3 15.7 28 18.3 56.8 10.6-48.2-3.5-80.2-24.9-95.4z" fill="#3b1c00"/><path class="st10" d="M145.1-381l85.4 31.1c2.5 1 3.8 3.7 2.8 6.1L177-204a5 5 0 01-6.4 2.7l-85.4-31.1a4.7 4.7 0 01-2.9-6.1l56.4-139.7a5 5 0 016.4-2.7z"/><path class="st11" d="M143.9-385.2l82.6 30.1a6 6 0 013.7 8l-55.3 137a6.6 6.6 0 01-8.3 3.6L84-236.7a6 6 0 01-3.7-7.9l55.3-137c1.3-3.2 5-4.8 8.4-3.6z"/><ellipse cx="155.3" cy="-295.9" rx="10.3" ry="9.8" fill="#016"/><path d="M36.6-308.5C9.2-358.7 38.2-386.6 46-349c6.7-32.3 34.3-10.7 16.7 12.4-8.5 11.2-19.4 16.2-26.1 28z" fill="#cf040b"/><path class="st10" d="M-146.5 66.9l26.9 94.3c.8 2.8-.6 5.7-3.2 6.3l-146.1 36.4c-2.6.6-5.3-1.2-6.1-4l-26.9-94.3c-.8-2.9.6-5.7 3.2-6.3l146.1-36.4c2.6-.6 5.3 1.1 6.1 4z"/><path class="st11" d="M-143.9 63.3l26 91.3c1.1 3.6-.7 7.3-4 8l-143.5 35.8c-3.3.8-6.8-1.5-7.9-5.2l-26-91.3c-1-3.7.8-7.3 4.1-8.1L-151.8 58c3.4-.8 6.9 1.5 8 5.1z"/><path d="M-149.4 70.4l23 80.4c1 3.2-.8 6.5-3.8 7.2l-130.5 32.5c-3 .8-6.1-1.2-7-4.5l-23-80.3c-1-3.3.7-6.5 3.8-7.3L-156.5 66c3-.7 6.2 1.3 7.1 4.5z" fill="#1c183d"/><path class="st15" d="M-98 66.3c-1.7-1.2-4.2-2-5.1-3.5 0 0 0-.5.2-.8.4-1 .8-2 1.5-3a51 51 0 016.8-9.3l1.2-1.4c5.8-6 11.9-13.6 5.8-22.3-5.8-8-16.3-6.8-22.6-1.4a8.8 8.8 0 00-2.8 8c.6 2.5 2.7 3.3 4.7 1.6 2.9-2.5 7.7-3.5 11.6-1.3 1.7.9 1.9 2 3.3 3l.2.4c-.9.7-1.7 2.1-2.3 2.7a81.4 81.4 0 00-9.1 11.5 30.3 30.3 0 00-6 16.4c0 5.3 4.1 10 10.3 8 2.3-.8 4.6-6.8 2.2-8.6zM-98.8 88.6c.4-1.6.2-5.4-2.6-5.3h-1.7l-.8.1c-.2 0-.5-.1-.8 0-1.1 0-2.1 1-2.7 1.8a18.3 18.3 0 00-1.8 3.8c-.3 1-.5 2.3-.2 3.5.2.9.6 2 1.7 2.4l1.3.2v.1c.4.3.8.4 1.3.3.7.1 1.3.1 2.1-.2a6 6 0 002.2-2c1-1.3 1.6-3 2-4.7z"/></g></svg>