<svg xmlns="http://www.w3.org/2000/svg" xmlns:xlink="http://www.w3.org/1999/xlink" version="1.1" x="0" y="0" viewBox="0 0 180 150.7" xml:space="preserve" id="svg84"><style type="text/css" id="style2">.st4{fill:#f7f7f7}</style><g id="Layer_3"><path d="M39 102c-3-9.9-19-7.8-23.2-15C4.2 63.3 36.7 56.6 55.3 60.8c45.7 11 42.5 17.1 75.8 24.9 69.8 16.2 17 45.2 7.3 49.5-26.2 9.7-106 4.8-99.4-33.1z" id="path4" fill="#ffd7bd"/><path d="M86.2 103.3c-2.4-1.9-5.1-2.7-8-1.5a16.6 16.6 0 00-6.3 5.7c-3.6 4.8-6.4 10.6-12 13.6-2.7 1.5-6 2-9 .8-2.8-1.1-5-3.2-7.6-4.8a21.8 21.8 0 00-13-2.6c-4.6.3-10 1.8-10.2 7.3 0 1.1.9 1.7 1.1.3.7-4 6.3-4.7 9.6-4.8 4.3-.2 8.7.3 12.4 2.7 2.4 1.5 4.5 3.4 7.2 4.5 2.7 1 5.6 1 8.3 0 5.4-2 9-7.2 12-12 1.7-2.6 3.6-5.5 6.2-7.3 3-2 6.1-1.8 8.9.5.7.5 1-1.9.4-2.4z" id="path6" fill="#12007a"/><g id="g23"><linearGradient id="SVGID_1_" gradientUnits="userSpaceOnUse" x1="122.1" y1="55.1" x2="130" y2="62.7" gradientTransform="matrix(1.031 -.0372 -.0372 1.0447 .5 -.7)"><stop offset="0" id="stop10" stop-color="#fefefe"/><stop offset="1" id="stop12" stop-color="#dedede"/></linearGradient><path d="M164 12.1a3.5 3.5 0 00-5 .5l-70 84 5.3 4.5 70.1-84c1.2-1.6 1-3.8-.5-5z" id="path15" fill="url(#SVGID_1_)"/><path class="st4" d="M87.7 100l-2 5.1c-.2.5.4 1 .8.7l4.8-2.8a3.5 3.5 0 01-3.6-3z" id="path17"/><path class="st4" id="polygon19" d="M94.3 101.1z"/><path class="st4" d="M87.7 100a3.5 3.5 0 003.5 3l3.1-1.9-5.3-4.5-1.3 3.4z" id="path21"/></g><g id="g33"><g id="g31"><defs id="defs26"><path id="SVGID_2_" transform="rotate(-50.2 155.3 22.5)" d="M152.9 18.8h4.8v7.3h-4.8z"/></defs><clipPath id="SVGID_3_"><use xlink:href="#SVGID_2_" id="use28" overflow="visible"/></clipPath></g></g></g></svg>