<svg xmlns="http://www.w3.org/2000/svg" xmlns:xlink="http://www.w3.org/1999/xlink" viewBox="0 0 180 150.7" version="1.1" id="svg59"><style id="style2">.st4{fill:#f7f7f7}</style><g id="Layer_3"><path d="M39 102c-3-9.9-19-7.8-23.2-15C4.2 63.3 36.7 56.6 55.3 60.8c45.7 11 42.5 17.1 75.8 24.9 69.8 16.2 17 45.2 7.3 49.5-26.2 9.7-106 4.8-99.4-33.1z" fill="#ffd7bd" id="path4"/><path d="M19.5 119.8c7.8-1.4 15.8-2.3 23-5.7 1.5-.7 2.7-1.5 4-2.6 1.1-1 2.3-2.3 3.8-2.9 2.4-1 4 1 5.8 2.4 1.4 1.3 3.4 1.8 4.8.1 1.4-1.6 1.5-4 2.5-5.9 1.6-3.1 5-1.7 7.2 0 1 .7 1.9 1.7 2.8 2.6.7.7 1.5 1.5 2.5 1.5 1.3 0 2.2-1 2.6-2.2l.4-1.9c0-.4.2-1.5.6-1.8.8-.5 2.5 2.3 3 2.9a7.8 7.8 0 003 2.8c.1.1.3 0 .4-.2.3-.6.6-1.1.7-1.8.1-.5 0-1.3-.3-1.7-.4-.3-.8-.3-.9.2 0 .4-.2.7-.4 1-1.2-.8-1.9-2.1-2.7-3.3a7.5 7.5 0 00-3-2.7h-.4c-.7.7-1 1.6-1.3 2.5-.2 1-.2 2.3-1 3-1.8 1.6-3.6-1.6-4.8-2.6-1.6-1.5-4-3.3-6.4-3-2.3.4-3.3 2.3-4 4.3-.5 1.5-.8 4-2.6 4.6-1.8.5-3.2-1.6-4.4-2.5-1.6-1.3-3.5-1.8-5.4-.7-1.2.7-2.2 1.6-3.2 2.5a16 16 0 01-4.1 2.8c-7.2 3.3-15.1 4-22.6 6.2-.7.2-.3 2.3.4 2.1z" fill="#12007a" id="path6"/><linearGradient id="SVGID_1_" gradientUnits="userSpaceOnUse" x1="122.1" y1="55.1" x2="129.9" y2="62.8" gradientTransform="matrix(1.031 -.0372 -.0372 1.0447 .6 -.7)"><stop offset="0" stop-color="#fefefe" id="stop10"/><stop offset="1" stop-color="#dedede" id="stop12"/></linearGradient><path d="M164 12.1a3.5 3.5 0 00-5 .5l-70 84 5.3 4.5 70.1-84c1.2-1.6 1-3.8-.5-5z" fill="url(#SVGID_1_)" id="path15"/><path class="st4" d="M87.7 100l-2 5.1c-.2.5.4 1 .8.7l4.8-2.8a3.5 3.5 0 01-3.6-3zm6.6 1.1z" id="path17"/><path class="st4" d="M87.7 100a3.5 3.5 0 003.5 3l3.1-1.9-5.3-4.5-1.3 3.4z" id="path19"/><g id="g27"><defs id="defs22"><path id="SVGID_2_" transform="rotate(-50.2 155.3 22.5)" d="M152.9 18.8h4.8v7.3h-4.8z"/></defs><clipPath id="SVGID_3_"><use xlink:href="#SVGID_2_" overflow="visible" id="use24"/></clipPath></g></g></svg>