<svg xmlns="http://www.w3.org/2000/svg" xmlns:xlink="http://www.w3.org/1999/xlink" viewBox="0 0 368 240"><style>.st4{fill:#f7f7f7}.st6{fill:#ffd1a6}.st10{fill:#b0b5cf}.st11{fill:#ededed}.st15{fill:#ffb36b}</style><g id="Layer_3"><path d="M431.8 102.7c-3-9.8-19-7.7-23.3-14.9-11.5-23.8 21-30.5 39.6-26.3 45.7 11 42.5 17.1 75.8 24.8 69.8 16.2 17 45.3 7.2 49.6-26.2 9.7-106 4.8-99.3-33.2z" fill="#ffd7bd"/><path d="M412.3 120.6c7.7-1.4 15.7-2.3 23-5.7 1.4-.7 2.7-1.5 4-2.6 1-1 2.3-2.3 3.7-3 2.5-1 4.1 1 5.8 2.5 1.5 1.2 3.4 1.8 4.8.1 1.5-1.7 1.6-4 2.5-6 1.7-3 5-1.7 7.3 0 1 .8 1.8 1.8 2.7 2.7.7.7 1.6 1.4 2.6 1.4 1.3 0 2.1-1 2.5-2.1l.5-2c0-.4.2-1.4.6-1.7.8-.5 2.5 2.3 3 2.9a7.8 7.8 0 003 2.8l.4-.2c.3-.6.6-1.2.7-1.8.1-.5 0-1.3-.4-1.7-.3-.3-.7-.3-.8.2 0 .3-.2.7-.4 1-1.2-.8-1.9-2.2-2.7-3.3a7.5 7.5 0 00-3-2.7h-.4c-.8.7-1 1.6-1.3 2.5-.2 1-.2 2.3-1 3-1.8 1.6-3.7-1.6-4.8-2.6-1.7-1.5-4-3.4-6.5-3-2.2.4-3.2 2.3-3.9 4.3-.5 1.4-.9 4-2.7 4.6-1.7.5-3.2-1.6-4.3-2.5-1.7-1.4-3.5-1.8-5.4-.7-1.2.6-2.2 1.6-3.2 2.5a16 16 0 01-4.2 2.8c-7.1 3.3-15 4-22.6 6.2-.7.2-.2 2.2.5 2z" fill="#12007a"/><path d="M41.5 71.2c-57.7 69.7 47 53.7 56.6 92.4 11.9 48.1 52.5 38.6 85.2 40.9 27.8 1.9 54 15.1 82 14.4 78.4-1.8 99.3-63.2 57-138.9-22.8-40.4-63.3-16.8-94.8-16.9-32.7-.1-65-30-97-15.4-12.7 5.7-21.2 18.6-35.3 20.4-14.9 1.9-41-12.2-53.7 3z" fill="#d4efff"/><linearGradient id="SVGID_1_" gradientUnits="userSpaceOnUse" x1="514.9" y1="55.9" x2="522.7" y2="63.6" gradientTransform="matrix(1.031 -.0372 -.0372 1.0447 -11.6 13.9)"><stop offset="0" stop-color="#fefefe"/><stop offset="1" stop-color="#dedede"/></linearGradient><path d="M556.7 12.9a3.5 3.5 0 00-5 .4l-70 84 5.4 4.6 70-84.1c1.3-1.5 1.1-3.7-.4-5z" fill="url(#SVGID_1_)"/><path class="st4" d="M480.4 100.8l-2 5.1c-.1.5.5 1 1 .7l4.6-2.9a3.5 3.5 0 01-3.6-3zM487.1 101.9z"/><path class="st4" d="M480.4 100.8a3.5 3.5 0 003.6 3l3.1-2-5.4-4.4-1.3 3.3z"/><g><defs><path id="SVGID_2_" transform="rotate(-50.2 548 23.2)" d="M545.7 19.6h4.8v7.3h-4.8z"/></defs><clipPath id="SVGID_3_"><use xlink:href="#SVGID_2_" overflow="visible"/></clipPath></g></g><g id="Layer_2"><path d="M261.3-383.2c61.7-171-313.2 24.7-125 105.4 80 34.3 189.7 23.2 245.3 96.8C476.3-55.4 719-90.4 760.6-242c9.2-33.6-15.4-118.5-57.7-94.7-282 158-241.8-110.6-460.3-158.2-21-4.5-55 0-52.6 26.7 2.3 25 65.2 35.8 47.8 54-19.6 20.5 5.7 80.6 23.5 31.1z" fill="#ebffed"/><path class="st6" d="M371.2-383.8c1.8-2 2.3-5 3.5-7.4s4.3-4.4 6.6-2.9c2 1.4 1.8 4.5 1.3 7l-3.3 15c-.8 3-1.6 6.1-3.6 8.5-1 1.2-2.3 2.2-3.6 3.1-.6-.5-1-1.2-1.1-2M282.9-272.5l8.3-54.5 59.7-9.7 9.7 77.6-10 70z"/><path d="M264.4-292.1a50 50 0 0140.4 12.9c6.2 5.5 12.8 10.5 17.1 10.9 7 .6 17.4-14.2 23.7-17.8 12-6.7 41.4-6.5 53.6 0 3.4 1.9 9.6 7.8 11 11.9 12.3 37 30 133.5 3.1 158.4-35.4 32.9-153 15.6-180.6-26-11-16.4-16.8-54.1-16.5-88.2.2-31.7 20.9-58.3 48.2-62.1z" fill="#04c8cf"/><path class="st6" d="M286.6-350.2c-3.1 2.7-8 1.8-11.1-1-3.1-2.7-4.7-6.7-6.1-10.7-1-2.8-1.9-5.7-2.5-8.7-.6-3.5-.7-7.3 1-10.4.5-1.2 1.4-2.2 2.5-2.6 2.3-.7 4.5 1.3 6 3.2l14.4 16.6c2.7 3.2 5.4 6.3 8 9.7.2.4.6 1 .5 1.5-.1.5-.7.9-1.2 1.2-4 2-8.8 2.9-11.5 1.2z"/><path d="M270.3-402.9c.2 21 8.8 65.3 23.6 80 76.1 96.2 106.9-97.6 62.7-129.7-10.3-4-42-10.7-53.9-3.1-36.5 23.3-32.7 13.7-32.4 52.8z" fill="#ffdfc2"/><path d="M352-466.6c-.5-.6-1-1.3-1.6-1.8-3.1-3.2-7.2-5.1-11.2-7a333 333 0 00-17.6-7.3l2.4 6c-2.9-.2-5.8-.1-8.6.1l-11.7-2.6c-1.7-.4-3.5-.8-5.2-.3-1.6.5-3.1 2.2-2.8 4 .3 1.7 1.9 2.6 3.5 3.3a51 51 0 00-9.2 5.5c-4.3-.5-8.6-.8-12.9-1 1.4 3 3.9 5 6.8 6.2a55.5 55.5 0 00-3.5 4l-4-.5c-2-.2-4.4 0-5 1.9 1.5.4 2.7 1.4 3.5 2.7a26.4 26.4 0 01-5.6 3.8c1.3.9 2.7 1.8 4.2 2.6a69 69 0 00-3.7 8.4l-8.4 1.4 6.5 4.7a105 105 0 00-2.6 36l12.1 38.2c-2.6-15.6 4.4-64 7.6-64 3.2 0 21 2.8 28 2.7 12.3-.1 43.9-6.4 45.7-8.4 22 3 15.7 28 18.3 56.7 10.6-48.1-3.5-80.1-25-95.3z" fill="#3b1c00"/><path class="st10" d="M537.9-380.3l85.4 31.2c2.5 1 3.8 3.7 2.8 6.1l-56.3 139.7a5 5 0 01-6.5 2.7L478-231.7a4.7 4.7 0 01-2.8-6.2l56.3-139.6a5 5 0 016.5-2.8z"/><path class="st11" d="M536.6-384.4l82.7 30.1a6 6 0 013.7 8l-55.3 137a6.6 6.6 0 01-8.3 3.5l-82.7-30.1a6 6 0 01-3.7-8l55.3-137c1.3-3.2 5-4.7 8.4-3.5z"/><ellipse cx="548" cy="-295.1" rx="10.3" ry="9.8" fill="#016"/><path d="M429.3-307.8c-27.4-50.2 1.6-78 9.5-40.5 6.7-32.3 34.3-10.6 16.7 12.5-8.5 11.2-19.4 16.2-26.2 28z" fill="#cf040b"/><path class="st10" d="M246.3 67.7l26.9 94.3c.8 2.8-.6 5.6-3.2 6.3l-146.1 36.3c-2.6.7-5.3-1.1-6.1-4l-27-94.3c-.7-2.8.7-5.6 3.3-6.3l146-36.3c2.7-.7 5.4 1.1 6.2 4z"/><path class="st11" d="M248.9 64l26 91.3c1 3.7-.8 7.3-4 8.1l-143.5 35.7c-3.3.9-6.8-1.5-7.9-5.1l-26-91.3c-1-3.7.8-7.3 4-8.2L241 58.8c3.3-.8 6.8 1.5 7.9 5.2z"/><path d="M243.4 71.2l23 80.4c.9 3.2-.8 6.4-3.8 7.2L132 191.3c-3 .8-6.2-1.3-7.1-4.5l-23-80.4c-.9-3.2.8-6.4 3.8-7.2l130.5-32.5c3-.8 6.2 1.2 7.1 4.5z" fill="#1c183d"/><path class="st15" d="M294.7 67c-1.7-1.2-4.1-2-5-3.4 0 0 0-.5.2-.8a51 51 0 018.3-12.3l1.2-1.4c5.8-6.1 11.9-13.7 5.7-22.3-5.7-8-16.3-6.8-22.5-1.4a8.8 8.8 0 00-2.8 8c.6 2.4 2.6 3.3 4.6 1.6 3-2.5 7.7-3.5 11.7-1.4 1.6 1 1.8 2 3.3 3.1l.2.4c-.9.7-1.8 2.1-2.3 2.7a81.4 81.4 0 00-9.1 11.4 30.3 30.3 0 00-6.1 16.4c0 5.4 4.2 10 10.4 8 2.3-.7 4.6-6.7 2.2-8.5zM294 89.4c.3-1.7.2-5.4-2.7-5.3h-3.2c-1.2.2-2.2 1-2.7 1.8a18.3 18.3 0 00-1.8 3.9c-.3 1-.5 2.3-.3 3.5.3.8.6 2 1.7 2.3.4.2 1 .2 1.3.3h.1c.4.4.8.5 1.3.4.7 0 1.3 0 2-.3a6 6 0 002.2-1.9c1.1-1.4 1.7-3 2-4.7z"/></g></svg>