<svg xmlns="http://www.w3.org/2000/svg" xmlns:xlink="http://www.w3.org/1999/xlink" viewBox="0 0 368 240" version="1.1" id="svg59"><style id="style2"></style><g id="Layer_3"><path d="M41.5 71.2c-57.7 69.7 47 53.7 56.6 92.4 11.9 48.1 52.5 38.6 85.2 40.9 27.8 1.9 54 15.1 82 14.4 78.4-1.8 99.3-63.2 57-138.9-22.8-40.4-63.3-16.8-94.8-16.9-32.7-.1-65-30-97-15.4-12.7 5.7-21.2 18.6-35.3 20.4-14.9 1.9-41-12.2-53.7 3z" fill="#d4efff" id="path8"/><linearGradient id="SVGID_1_" gradientUnits="userSpaceOnUse" x1="514.9" y1="55.9" x2="522.7" y2="63.6" gradientTransform="matrix(1.031 -.0372 -.0372 1.0447 -11.6 13.9)"><stop offset="0" stop-color="#fefefe" id="stop10"/><stop offset="1" stop-color="#dedede" id="stop12"/></linearGradient><g id="g27"><defs id="defs22"><path id="SVGID_2_" transform="rotate(-50.2 548 23.2)" d="M545.7 19.6h4.8v7.3h-4.8z"/></defs><clipPath id="SVGID_3_"><use xlink:href="#SVGID_2_" overflow="visible" id="use24"/></clipPath></g></g><g id="Layer_2"><path d="M246.3 67.7l26.9 94.3c.8 2.8-.6 5.6-3.2 6.3l-146.1 36.3c-2.6.7-5.3-1.1-6.1-4l-27-94.3c-.7-2.8.7-5.6 3.3-6.3l146-36.3c2.7-.7 5.4 1.1 6.2 4z" id="path50" fill="#b0b5cf"/><path d="M248.9 64l26 91.3c1 3.7-.8 7.3-4 8.1l-143.5 35.7c-3.3.9-6.8-1.5-7.9-5.1l-26-91.3c-1-3.7.8-7.3 4-8.2L241 58.8c3.3-.8 6.8 1.5 7.9 5.2z" id="path52" fill="#ededed"/><path d="M243.4 71.2l23 80.4c.9 3.2-.8 6.4-3.8 7.2L132 191.3c-3 .8-6.2-1.3-7.1-4.5l-23-80.4c-.9-3.2.8-6.4 3.8-7.2l130.5-32.5c3-.8 6.2 1.2 7.1 4.5z" fill="#1c183d" id="path54"/><path d="M294.7 67c-1.7-1.2-4.1-2-5-3.4 0 0 0-.5.2-.8a51 51 0 018.3-12.3l1.2-1.4c5.8-6.1 11.9-13.7 5.7-22.3-5.7-8-16.3-6.8-22.5-1.4a8.8 8.8 0 00-2.8 8c.6 2.4 2.6 3.3 4.6 1.6 3-2.5 7.7-3.5 11.7-1.4 1.6 1 1.8 2 3.3 3.1l.2.4c-.9.7-1.8 2.1-2.3 2.7a81.4 81.4 0 00-9.1 11.4 30.3 30.3 0 00-6.1 16.4c0 5.4 4.2 10 10.4 8 2.3-.7 4.6-6.7 2.2-8.5zm-.7 22.4c.3-1.7.2-5.4-2.7-5.3h-3.2c-1.2.2-2.2 1-2.7 1.8a18.3 18.3 0 00-1.8 3.9 8 8 0 00-.3 3.5c.3.8.6 2 1.7 2.3.4.2 1 .2 1.3.3h.1c.4.4.8.5 1.3.4.7 0 1.3 0 2-.3a6 6 0 002.2-1.9c1.1-1.4 1.7-3 2-4.7z" id="path56" fill="#ffb36b"/></g></svg>