<svg viewBox="0 0 1920 1080" xmlns="http://www.w3.org/2000/svg"><style>.st1{fill:#ffd1a6}</style><path d="M593.43 328.05c141.3-392.06-717.51 56.57-286.45 241.35 183.16 78.52 434.63 53.11 562 221.89 217.11 287.69 773.29 207.35 868.39-140.1 21.04-76.89-35.3-271.42-132.31-217.01-645.8 362.19-554.02-253.39-1054.6-362.29-48.01-10.44-126.07.04-120.4 61.07 5.33 57.36 149.34 82.11 109.53 123.75-44.91 46.98 12.96 184.62 53.79 71.34z" fill="#ebffed"/><path class="st1" d="M845.23 326.62c4.09-4.68 5.17-11.34 8.1-16.88s9.82-10.15 14.91-6.68c4.62 3.15 4.12 10.21 3.02 15.82a776.02 776.02 0 01-7.58 34.42c-1.69 6.93-3.61 14.1-8.14 19.49-2.39 2.84-5.4 5.05-8.37 7.22a7.14 7.14 0 01-2.47-4.4M642.91 581.61l18.92-124.97 136.92-22.17 22.24 177.81-23.1 160.31z"/><path d="M600.64 536.66c33-4.6 66.22 6.05 92.46 29.5 14.23 12.72 29.42 24.01 39.28 24.94 16.13 1.52 39.65-32.55 54.21-40.67 27.59-15.39 94.91-14.97 122.68 0 7.8 4.21 21.98 17.94 25.09 27.18 28.42 84.68 68.8 305.9 7.39 362.95-81.11 75.36-350.67 35.67-413.92-59.65-24.89-37.51-38.46-123.92-37.8-202.02.61-72.61 47.89-133.48 110.61-142.23z" fill="#04c8cf"/><path class="st1" d="M651.38 403.56c-7.11 6.16-18.45 4.07-25.49-2.18-7.04-6.24-10.75-15.53-13.88-24.57-2.26-6.52-4.35-13.12-5.62-19.92-1.5-8.05-1.74-16.81 2.03-24.02 1.32-2.52 3.25-4.89 5.88-5.75 5.22-1.71 10.21 2.94 13.85 7.18l32.8 38.09c6.23 7.23 12.46 14.47 18.17 22.14.74.99 1.51 2.15 1.29 3.38-.23 1.32-1.49 2.14-2.65 2.75-9.3 4.89-20.07 6.71-26.38 2.9z"/><path d="M614.07 282.85c.43 47.9 20.24 149.56 54.07 183.28 174.4 220.45 244.76-223.66 143.5-297.04-23.58-9.46-96.03-24.65-123.33-7.23-83.63 53.35-75.05 31.39-74.24 120.99z" fill="#ffdfc2"/><path d="M801.48 136.94a54.06 54.06 0 00-3.87-4.25c-7.29-7.15-16.59-11.64-25.8-15.81A761.3 761.3 0 00731.53 100l5.47 13.72c-6.58-.43-13.17-.32-19.7.34l-26.66-6.04c-3.93-.89-8.05-1.78-11.91-.64-3.87 1.14-7.3 5.02-6.57 9.11.69 3.85 4.43 6.05 7.96 7.64a117.01 117.01 0 00-21.01 12.44 491.01 491.01 0 00-29.43-2.18c3.17 6.8 8.82 11.29 15.51 14.26-2.8 2.83-5.51 5.83-8.11 9l-9.26-1.04c-4.32-.48-10.04-.06-11.19 4.28 3.24 1 6.11 3.24 7.92 6.2a61.29 61.29 0 01-12.92 8.65c3.15 2.14 6.38 4.13 9.7 5.98a158.33 158.33 0 00-8.36 19.25l-19.43 3.24 15.05 10.74c-6.27 23.36-8.74 50.79-6.13 82.36L630.32 385c-6.02-35.75 10.06-146.67 17.37-146.73s48.03 6.5 64.14 6.3c28.12-.35 100.6-14.65 104.8-19.32 50.43 6.87 35.97 64.19 41.93 130.02 24.22-110.22-8.09-183.51-57.08-218.33z" fill="#3b1c00"/><path d="M1227 334.71l195.61 71.35c5.9 2.15 8.84 8.44 6.58 14.04l-129.08 319.95c-2.26 5.61-8.87 8.41-14.77 6.26l-195.61-71.35c-5.9-2.15-8.84-8.44-6.58-14.04l129.08-319.95c2.26-5.61 8.87-8.41 14.77-6.26z" fill="#b0b5cf"/><path d="M1224.2 325.14l189.38 69.08c7.62 2.78 11.42 10.9 8.5 18.14l-126.69 314.02c-2.92 7.24-11.47 10.86-19.08 8.08l-189.38-69.08c-7.62-2.78-11.42-10.9-8.5-18.14l126.69-314.02c2.92-7.24 11.46-10.86 19.08-8.08z" fill="#ededed"/><ellipse cx="1250.3" cy="529.8" rx="23.7" ry="22.53" fill="#016"/><path d="M978.38 500.79c-62.72-115.09 3.68-178.94 21.67-92.77 15.37-74.04 78.59-24.46 38.2 28.53-19.47 25.54-44.32 36.99-59.87 64.24z" fill="#cf040b"/></svg>